# xmcd
# 
# Track frame offsets:
#	150
#	11307
#	18335
#	26790
#	38722
#	48380
#	60010
#	71435
#	79817
#	89067
#	99515
#	114332
#	125057
#	133120
#	143667
#
# Disc length: 2062 seconds
#
# Revision: 1
# Processed by: cddbd v1.4PL0 Copyright (c) Steve Scherf et al.
# Submitted via: Audio-CD-Archiv 2.10.446
#
DISCID=bf080c0f
DTITLE=Various Artist - Country and Western Highlights Vol 1
DYEAR=1900
DGENRE=country
TTITLE0=Oh, Lonesome Me - Bob Luman
TTITLE1=Run, Baby, Run - Stonewall Jackson
TTITLE2=Honky Tonk Man - Sonny Fisher
TTITLE3=Life Ti Go - Webb Pierce
TTITLE4=Blue Moon Of Kentucky - Bill Monroe
TTITLE5=Crazy Arms - Ernest Tubb
TTITLE6=Picking My Big Guitar - Bill Watkins
TTITLE7=Goodbye I Hate Yo See You Go - Don Rader
TTITLE8=Tiger By The Tail - Sleepy La Beef
TTITLE9=Sitting At Home With The Blues - Johnny Bailes
TTITLE10=Crying Time - Brenda Lee
TTITLE11=Stop, Look And Listen - Patsy Cline
TTITLE12=My Bucket's Got A Hole In It - Eddie Bond
TTITLE13=Beautiful Dreamer - Jerry Lee Lewis
TTITLE14=For The Last Time - Curtis Gordon
EXTD=
EXTT0=
EXTT1=
EXTT2=
EXTT3=
EXTT4=
EXTT5=
EXTT6=
EXTT7=
EXTT8=
EXTT9=
EXTT10=
EXTT11=
EXTT12=
EXTT13=
EXTT14=
PLAYORDER=
